<svg width="50" height="100" viewBox="0 0 50 100" fill="none" xmlns="http://www.w3.org/2000/svg">
<mask id="path-1-inside-1_2_15" fill="white">
<path fill-rule="evenodd" clip-rule="evenodd" d="M0 25C0 11.1929 11.1929 0 25 0C38.8071 0 50 11.1929 50 25V75C50 88.8071 38.8071 100 25 100C11.1929 100 0 88.8071 0 75V25Z"/>
</mask>
<path d="M25 -1C10.6406 -1 -1 10.6406 -1 25H1C1 11.7452 11.7452 1 25 1V-1ZM51 25C51 10.6406 39.3594 -1 25 -1V1C38.2548 1 49 11.7452 49 25H51ZM51 75V25H49V75H51ZM49 75C49 88.2548 38.2548 99 25 99V101C39.3594 101 51 89.3594 51 75H49ZM25 99C11.7452 99 1 88.2548 1 75H-1C-1 89.3594 10.6406 101 25 101V99ZM-1 25V75H1V25H-1Z" fill="black" mask="url(#path-1-inside-1_2_15)"/>
</svg>
