<svg width="100" height="100" viewBox="0 0 100 100" fill="none" xmlns="http://www.w3.org/2000/svg">
<g clip-path="url(#clip0_11_17)">
<path d="M38.3259 4.91893C44.7062 -1.63964 55.2938 -1.63964 61.6741 4.91893C64.7794 8.1109 69.0885 9.88991 73.5584 9.8365C82.6716 9.72753 90.1239 17.0868 90.0165 26.1326L90.0115 26.5553C89.9593 30.9283 91.7012 35.1342 94.8362 38.207L95.1741 38.5381C101.609 44.8449 101.609 55.1551 95.1741 61.4617L94.8362 61.793C91.7012 64.8658 89.9593 69.0716 90.0115 73.4444L90.0165 73.8675C90.1239 82.9132 82.6716 90.2724 73.5584 90.1634C69.0885 90.1099 64.7794 91.8889 61.6741 95.0811C55.2938 101.639 44.7062 101.639 38.3259 95.0811C35.2207 91.8889 30.9115 90.1099 26.4415 90.1634C17.3282 90.2724 9.8763 82.9132 9.98367 73.8675L9.98869 73.4448C10.0406 69.0716 8.29893 64.8658 5.16387 61.793L4.82593 61.4617C-1.60865 55.1551 -1.60864 44.8449 4.82593 38.5381L5.16387 38.207C8.29893 35.1342 10.0406 30.9283 9.98869 26.5553L9.98367 26.1326C9.8763 17.0868 17.3282 9.72753 26.4415 9.8365C30.9115 9.88991 35.2207 8.1109 38.3259 4.91893Z" fill="#4480F4"/>
</g>
<defs>
<clipPath id="clip0_11_17">
<rect width="100" height="100" fill="white"/>
</clipPath>
</defs>
</svg>
