<svg width="243" height="243" viewBox="0 0 243 243" xmlns="http://www.w3.org/2000/svg">
  <path d="M93.132 11.953C108.636 -3.98432 134.364 -3.98432 149.868 11.953C157.414 19.7095 167.885 24.0325 178.747 23.9027C200.892 23.6379 219.001 41.5209 218.74 63.5022L218.728 64.5295C218.601 75.1557 222.834 85.3762 230.452 92.8429L231.273 93.6477C246.909 108.973 246.909 134.027 231.273 149.352L230.452 150.157C222.834 157.624 218.601 167.844 218.728 178.47L218.74 179.498C219.001 201.479 200.892 219.362 178.747 219.097C167.885 218.967 157.414 223.29 149.868 231.047C134.364 246.984 108.636 246.984 93.132 231.047C85.5863 223.29 75.115 218.967 64.2529 219.097C42.1076 219.362 23.9994 201.479 24.2603 179.498L24.2725 178.471C24.3986 167.844 20.1664 157.624 12.5482 150.157L11.727 149.352C-3.90902 134.027 -3.90901 108.973 11.727 93.6477L12.5482 92.8429C20.1664 85.3761 24.3986 75.1557 24.2725 64.5295L24.2603 63.5022C23.9994 41.5209 42.1076 23.6379 64.2529 23.9027C75.115 24.0325 85.5863 19.7095 93.132 11.953Z" 
        fill="#4480F4" />
</svg>
