<svg width="99" height="98" viewBox="0 0 99 98" fill="none" xmlns="http://www.w3.org/2000/svg">
<mask id="path-1-inside-1_2_4" fill="white">
<path d="M48.0078 1.21875C47.4453 1.88281 46.7578 2.69531 46.4609 3.02344C46.1719 3.35156 45.6641 3.95312 45.3281 4.35156C45 4.75781 44.5547 5.29688 44.3359 5.54688C42.8125 7.3125 42.4922 7.69531 42.1328 8.13281C41.9063 8.40625 41.5625 8.80469 41.3594 9.02344C41.1641 9.23438 40.7969 9.65625 40.5547 9.96094C40.0313 10.6094 38.9766 11.8594 38.5391 12.3281L38.2266 12.6719L37.1797 12.3594C35.9141 11.9766 34.0703 11.4297 31.7578 10.7422C30.8125 10.4609 29.9844 10.2031 29.9219 10.1641C29.8594 10.1328 29.4688 10 29.0625 9.88281C28.6563 9.76562 26.9844 9.26562 25.3516 8.78125C23.7188 8.28906 22.3438 7.89062 22.2891 7.89062C22.2344 7.89062 22.1875 7.9375 22.1875 7.98438C22.1797 8.25 20 24.3906 19.9609 24.4375C19.9453 24.4531 18.7422 24.7969 17.1484 25.2344C16.6797 25.3672 16.1641 25.5234 16.0156 25.5859C15.8672 25.6406 15.0781 25.875 14.2578 26.1016C10.5234 27.125 7.71875 27.9141 7.07031 28.1172C6.6875 28.2422 5.82031 28.4922 5.15625 28.6797C4.49219 28.8594 3.92969 29.0234 3.91406 29.0312C3.88281 29.0547 4.41406 30.2266 5.15625 31.7578C5.45313 32.3594 5.86719 33.2344 6.07813 33.7109C6.94531 35.6172 7.42188 36.6484 7.91406 37.6562C8.19531 38.2344 8.69531 39.3047 9.02344 40.0391C9.35156 40.7656 9.88281 41.8906 10.1953 42.5391C10.5 43.1797 10.8047 43.8281 10.8594 43.9688C10.9766 44.2734 11.0234 44.2031 9.96094 45.375C9.57813 45.7969 9.01563 46.4375 8.71094 46.7969C8.41406 47.1562 8.01563 47.6016 7.82813 47.7969C7.64063 47.9844 7.29688 48.375 7.05469 48.6562C6.8125 48.9453 6.13281 49.7266 5.54688 50.3906C2.04688 54.3359 0 56.6875 0 56.7656C0 56.8203 0.585938 57.2266 1.3125 57.6797C2.03125 58.1328 3.14844 58.8359 3.78906 59.25C4.4375 59.6641 5.45313 60.3125 6.05469 60.6797C6.65625 61.0547 7.23438 61.4219 7.34375 61.5C7.45313 61.5859 8.1875 62.0469 8.98438 62.5391C9.78125 63.0234 10.8516 63.7031 11.3672 64.0391C11.875 64.375 12.6719 64.8672 13.125 65.1406C13.5781 65.4141 13.9766 65.6641 14.0078 65.6953C14.0625 65.75 13.5 69.5547 12.4609 76.1719C11.8594 80.0625 11.5391 82.2656 11.5781 82.3047C11.6016 82.3281 15.3516 82.3047 19.9141 82.2578C27.9219 82.1797 28.2188 82.1797 28.3203 82.3203C28.4297 82.4609 28.6484 82.9609 30 86.0547C30.3984 86.9531 30.9063 88.0859 31.1406 88.5703C31.375 89.0547 31.5625 89.4609 31.5625 89.4844C31.5625 89.5547 33.2109 93.3047 33.5234 93.9453C33.6875 94.2891 34.0938 95.1875 34.4219 95.9375C34.7422 96.6875 35.0391 97.3359 35.0703 97.3672C35.1094 97.4062 35.4453 97.2344 35.8281 96.9844C36.7578 96.3906 38.6719 95.1562 38.8672 95.0234C39.2422 94.7656 41.2813 93.4141 42.0703 92.8984C42.5469 92.5937 43.2266 92.1406 43.5938 91.8984C44.4297 91.3437 46.3984 90.0625 46.5625 89.9609C46.6328 89.9141 47.2266 89.5234 47.8828 89.0859C48.5469 88.6406 49.125 88.3047 49.1719 88.3359C49.6406 88.6172 51.2891 89.7187 51.4219 89.8437C51.5156 89.9297 51.6172 90 51.6563 90C51.7109 90 53.5234 91.1719 54.8047 92.0312C55.1094 92.2344 56.1953 92.9531 57.2266 93.625C58.2578 94.2969 59.1875 94.9141 59.2969 94.9922C59.4688 95.1094 60.3984 95.7187 62.5313 97.0937C62.8203 97.2812 63.0938 97.4062 63.125 97.3672C63.1563 97.3359 63.4375 96.7266 63.7422 96.0156C64.0547 95.3047 64.4609 94.4062 64.6484 94.0234C64.8359 93.6328 65.1406 92.9531 65.3359 92.5C65.5313 92.0469 65.8828 91.2344 66.125 90.6953C66.3672 90.1484 66.5625 89.6797 66.5625 89.6484C66.5625 89.625 66.8047 89.0859 67.1094 88.4687C67.4063 87.8437 67.6563 87.3203 67.6563 87.2969C67.6563 87.2656 68.4531 85.4375 69.3047 83.5156C69.5625 82.9375 69.8203 82.3984 69.8828 82.3203C69.9844 82.1797 70.2969 82.1797 78.2891 82.2578C82.8516 82.3047 86.6016 82.3281 86.625 82.3125C86.6641 82.2734 85.5156 74.5078 85.3516 73.7109C85.2891 73.4062 85.1094 72.3203 84.9609 71.2891C84.8047 70.2578 84.5547 68.5859 84.4063 67.5781C84.1406 65.8125 84.1328 65.7422 84.2734 65.6406C84.3516 65.5859 84.7891 65.3125 85.25 65.0391C85.7031 64.7578 86.4688 64.2812 86.9375 63.9688C87.4141 63.6562 88.0859 63.2188 88.4453 63.0078C89.4375 62.4062 90.7656 61.5703 91.5 61.0859C91.8594 60.8438 92.4766 60.4609 92.8594 60.2344C93.2422 60.0078 93.9922 59.5312 94.5313 59.1797C95.0703 58.8281 96.0547 58.2031 96.7266 57.7812C98.375 56.7578 98.2578 56.8594 98.1094 56.625C97.9844 56.4375 97.3047 55.6562 94.9453 53C94.3359 52.3047 93.6953 51.5781 93.5391 51.3828C93.375 51.1875 92.8359 50.5781 92.3438 50.0234C91.8438 49.4766 91.3594 48.9141 91.2656 48.7891C91.1641 48.6562 90.8828 48.3438 90.6406 48.0859C90.1328 47.5547 89.2422 46.5469 88.8125 46.0156C88.6563 45.8203 88.25 45.3672 87.8984 45C87.5547 44.6328 87.2734 44.2656 87.2656 44.1875C87.2656 44.1094 87.5625 43.4375 87.9219 42.7031C88.2891 41.9688 88.7188 41.0469 88.8906 40.6641C89.4141 39.4766 90.2188 37.7422 90.7031 36.7578C90.9531 36.2422 91.4453 35.1875 91.7969 34.4141C92.1484 33.6406 92.6406 32.5859 92.8906 32.0703C93.625 30.5781 94.2891 29.1094 94.25 29.0547C94.2344 29.0312 93.9297 28.9297 93.5781 28.8281C93.2188 28.7344 92.5781 28.5469 92.1484 28.4219C90.3672 27.8984 83.5 25.9609 82.5 25.7031C82.3047 25.6484 82.1172 25.5859 82.0703 25.5547C82.0313 25.5234 81.5703 25.375 81.0547 25.2344C79.4375 24.7891 78.2578 24.4609 78.2344 24.4375C78.2266 24.4219 78.0938 23.4453 77.9375 22.2656C77.7813 21.0859 77.6172 19.9766 77.5781 19.8047C77.5391 19.6328 77.1719 16.8906 76.75 13.7109C76.3359 10.5312 75.9844 7.91406 75.9688 7.89844C75.9375 7.85938 75.3281 8.02344 73.7109 8.51562C72.375 8.92188 70.6563 9.4375 69.2578 9.84375C68.7891 9.98438 68.3672 10.125 68.3203 10.1562C68.2813 10.1875 67.9063 10.3125 67.5 10.4297C67.0938 10.5469 66.375 10.7578 65.8984 10.8984C65.4297 11.0469 63.8984 11.5 62.5078 11.9141L59.9766 12.6719L59.6641 12.3281C59.2891 11.9297 58.0781 10.5156 57.5625 9.86719C57.3594 9.61719 57.0156 9.21875 56.7969 8.98438C56.5703 8.75 56.2266 8.35156 56.0313 8.09375C55.8281 7.84375 55.3281 7.25 54.9219 6.78125C54.1094 5.84375 53.7578 5.42969 52.7891 4.26562C52.4375 3.84375 51.9375 3.25781 51.6797 2.96094C51.4219 2.67188 50.7578 1.89062 50.1953 1.21875C49.6406 0.554688 49.1406 0 49.1016 0C49.0547 0 48.5625 0.546875 48.0078 1.21875Z"/>
</mask>
<path d="M48.0078 1.21875C47.4453 1.88281 46.7578 2.69531 46.4609 3.02344C46.1719 3.35156 45.6641 3.95312 45.3281 4.35156C45 4.75781 44.5547 5.29688 44.3359 5.54688C42.8125 7.3125 42.4922 7.69531 42.1328 8.13281C41.9063 8.40625 41.5625 8.80469 41.3594 9.02344C41.1641 9.23438 40.7969 9.65625 40.5547 9.96094C40.0313 10.6094 38.9766 11.8594 38.5391 12.3281L38.2266 12.6719L37.1797 12.3594C35.9141 11.9766 34.0703 11.4297 31.7578 10.7422C30.8125 10.4609 29.9844 10.2031 29.9219 10.1641C29.8594 10.1328 29.4688 10 29.0625 9.88281C28.6563 9.76562 26.9844 9.26562 25.3516 8.78125C23.7188 8.28906 22.3438 7.89062 22.2891 7.89062C22.2344 7.89062 22.1875 7.9375 22.1875 7.98438C22.1797 8.25 20 24.3906 19.9609 24.4375C19.9453 24.4531 18.7422 24.7969 17.1484 25.2344C16.6797 25.3672 16.1641 25.5234 16.0156 25.5859C15.8672 25.6406 15.0781 25.875 14.2578 26.1016C10.5234 27.125 7.71875 27.9141 7.07031 28.1172C6.6875 28.2422 5.82031 28.4922 5.15625 28.6797C4.49219 28.8594 3.92969 29.0234 3.91406 29.0312C3.88281 29.0547 4.41406 30.2266 5.15625 31.7578C5.45313 32.3594 5.86719 33.2344 6.07813 33.7109C6.94531 35.6172 7.42188 36.6484 7.91406 37.6562C8.19531 38.2344 8.69531 39.3047 9.02344 40.0391C9.35156 40.7656 9.88281 41.8906 10.1953 42.5391C10.5 43.1797 10.8047 43.8281 10.8594 43.9688C10.9766 44.2734 11.0234 44.2031 9.96094 45.375C9.57813 45.7969 9.01563 46.4375 8.71094 46.7969C8.41406 47.1562 8.01563 47.6016 7.82813 47.7969C7.64063 47.9844 7.29688 48.375 7.05469 48.6562C6.8125 48.9453 6.13281 49.7266 5.54688 50.3906C2.04688 54.3359 0 56.6875 0 56.7656C0 56.8203 0.585938 57.2266 1.3125 57.6797C2.03125 58.1328 3.14844 58.8359 3.78906 59.25C4.4375 59.6641 5.45313 60.3125 6.05469 60.6797C6.65625 61.0547 7.23438 61.4219 7.34375 61.5C7.45313 61.5859 8.1875 62.0469 8.98438 62.5391C9.78125 63.0234 10.8516 63.7031 11.3672 64.0391C11.875 64.375 12.6719 64.8672 13.125 65.1406C13.5781 65.4141 13.9766 65.6641 14.0078 65.6953C14.0625 65.75 13.5 69.5547 12.4609 76.1719C11.8594 80.0625 11.5391 82.2656 11.5781 82.3047C11.6016 82.3281 15.3516 82.3047 19.9141 82.2578C27.9219 82.1797 28.2188 82.1797 28.3203 82.3203C28.4297 82.4609 28.6484 82.9609 30 86.0547C30.3984 86.9531 30.9063 88.0859 31.1406 88.5703C31.375 89.0547 31.5625 89.4609 31.5625 89.4844C31.5625 89.5547 33.2109 93.3047 33.5234 93.9453C33.6875 94.2891 34.0938 95.1875 34.4219 95.9375C34.7422 96.6875 35.0391 97.3359 35.0703 97.3672C35.1094 97.4062 35.4453 97.2344 35.8281 96.9844C36.7578 96.3906 38.6719 95.1562 38.8672 95.0234C39.2422 94.7656 41.2813 93.4141 42.0703 92.8984C42.5469 92.5937 43.2266 92.1406 43.5938 91.8984C44.4297 91.3437 46.3984 90.0625 46.5625 89.9609C46.6328 89.9141 47.2266 89.5234 47.8828 89.0859C48.5469 88.6406 49.125 88.3047 49.1719 88.3359C49.6406 88.6172 51.2891 89.7187 51.4219 89.8437C51.5156 89.9297 51.6172 90 51.6563 90C51.7109 90 53.5234 91.1719 54.8047 92.0312C55.1094 92.2344 56.1953 92.9531 57.2266 93.625C58.2578 94.2969 59.1875 94.9141 59.2969 94.9922C59.4688 95.1094 60.3984 95.7187 62.5313 97.0937C62.8203 97.2812 63.0938 97.4062 63.125 97.3672C63.1563 97.3359 63.4375 96.7266 63.7422 96.0156C64.0547 95.3047 64.4609 94.4062 64.6484 94.0234C64.8359 93.6328 65.1406 92.9531 65.3359 92.5C65.5313 92.0469 65.8828 91.2344 66.125 90.6953C66.3672 90.1484 66.5625 89.6797 66.5625 89.6484C66.5625 89.625 66.8047 89.0859 67.1094 88.4687C67.4063 87.8437 67.6563 87.3203 67.6563 87.2969C67.6563 87.2656 68.4531 85.4375 69.3047 83.5156C69.5625 82.9375 69.8203 82.3984 69.8828 82.3203C69.9844 82.1797 70.2969 82.1797 78.2891 82.2578C82.8516 82.3047 86.6016 82.3281 86.625 82.3125C86.6641 82.2734 85.5156 74.5078 85.3516 73.7109C85.2891 73.4062 85.1094 72.3203 84.9609 71.2891C84.8047 70.2578 84.5547 68.5859 84.4063 67.5781C84.1406 65.8125 84.1328 65.7422 84.2734 65.6406C84.3516 65.5859 84.7891 65.3125 85.25 65.0391C85.7031 64.7578 86.4688 64.2812 86.9375 63.9688C87.4141 63.6562 88.0859 63.2188 88.4453 63.0078C89.4375 62.4062 90.7656 61.5703 91.5 61.0859C91.8594 60.8438 92.4766 60.4609 92.8594 60.2344C93.2422 60.0078 93.9922 59.5312 94.5313 59.1797C95.0703 58.8281 96.0547 58.2031 96.7266 57.7812C98.375 56.7578 98.2578 56.8594 98.1094 56.625C97.9844 56.4375 97.3047 55.6562 94.9453 53C94.3359 52.3047 93.6953 51.5781 93.5391 51.3828C93.375 51.1875 92.8359 50.5781 92.3438 50.0234C91.8438 49.4766 91.3594 48.9141 91.2656 48.7891C91.1641 48.6562 90.8828 48.3438 90.6406 48.0859C90.1328 47.5547 89.2422 46.5469 88.8125 46.0156C88.6563 45.8203 88.25 45.3672 87.8984 45C87.5547 44.6328 87.2734 44.2656 87.2656 44.1875C87.2656 44.1094 87.5625 43.4375 87.9219 42.7031C88.2891 41.9688 88.7188 41.0469 88.8906 40.6641C89.4141 39.4766 90.2188 37.7422 90.7031 36.7578C90.9531 36.2422 91.4453 35.1875 91.7969 34.4141C92.1484 33.6406 92.6406 32.5859 92.8906 32.0703C93.625 30.5781 94.2891 29.1094 94.25 29.0547C94.2344 29.0312 93.9297 28.9297 93.5781 28.8281C93.2188 28.7344 92.5781 28.5469 92.1484 28.4219C90.3672 27.8984 83.5 25.9609 82.5 25.7031C82.3047 25.6484 82.1172 25.5859 82.0703 25.5547C82.0313 25.5234 81.5703 25.375 81.0547 25.2344C79.4375 24.7891 78.2578 24.4609 78.2344 24.4375C78.2266 24.4219 78.0938 23.4453 77.9375 22.2656C77.7813 21.0859 77.6172 19.9766 77.5781 19.8047C77.5391 19.6328 77.1719 16.8906 76.75 13.7109C76.3359 10.5312 75.9844 7.91406 75.9688 7.89844C75.9375 7.85938 75.3281 8.02344 73.7109 8.51562C72.375 8.92188 70.6563 9.4375 69.2578 9.84375C68.7891 9.98438 68.3672 10.125 68.3203 10.1562C68.2813 10.1875 67.9063 10.3125 67.5 10.4297C67.0938 10.5469 66.375 10.7578 65.8984 10.8984C65.4297 11.0469 63.8984 11.5 62.5078 11.9141L59.9766 12.6719L59.6641 12.3281C59.2891 11.9297 58.0781 10.5156 57.5625 9.86719C57.3594 9.61719 57.0156 9.21875 56.7969 8.98438C56.5703 8.75 56.2266 8.35156 56.0313 8.09375C55.8281 7.84375 55.3281 7.25 54.9219 6.78125C54.1094 5.84375 53.7578 5.42969 52.7891 4.26562C52.4375 3.84375 51.9375 3.25781 51.6797 2.96094C51.4219 2.67188 50.7578 1.89062 50.1953 1.21875C49.6406 0.554688 49.1406 0 49.1016 0C49.0547 0 48.5625 0.546875 48.0078 1.21875Z" stroke="black" stroke-width="2" mask="url(#path-1-inside-1_2_4)"/>
</svg>
